<?xml version="1.0" standalone="no"?>
<!DOCTYPE svg PUBLIC "-//W3C//DTD SVG 20010904//EN"
 "http://www.w3.org/TR/2001/REC-SVG-20010904/DTD/svg10.dtd">
<svg version="1.0" xmlns="http://www.w3.org/2000/svg"
 width="192.000000pt" height="192.000000pt" viewBox="0 0 192.000000 192.000000"
 preserveAspectRatio="xMidYMid meet">
<metadata>
Created by potrace 1.11, written by Peter Selinger 2001-2013
</metadata>
<g transform="translate(0.000000,192.000000) scale(0.100000,-0.100000)"
fill="#000000" stroke="none">
<path d="M825 1759 c-107 -20 -209 -70 -281 -136 -60 -56 -90 -100 -114 -173
-22 -63 -22 -73 -16 -242 1 -14 4 -24 7 -22 10 6 20 -26 12 -38 -3 -7 -1 -8 5
-4 7 4 12 1 12 -9 0 -16 2 -20 46 -68 21 -25 23 -31 12 -45 -11 -15 -11 -15 3
-5 12 10 20 8 40 -10 13 -13 38 -31 56 -42 18 -10 30 -22 27 -27 -3 -5 -2 -8
3 -7 20 3 34 -2 28 -11 -4 -6 1 -7 11 -3 13 5 15 3 9 -7 -5 -8 -4 -11 3 -7 16
11 42 -3 42 -22 0 -14 2 -14 10 -1 9 13 11 13 20 0 5 -8 10 -12 10 -8 0 15 60
-15 61 -30 0 -11 2 -13 6 -4 4 10 8 10 21 0 12 -10 14 -10 8 -1 -5 9 -2 11 8
7 8 -3 17 -11 19 -19 4 -8 16 -11 34 -7 26 5 27 4 13 -13 -14 -17 -14 -17 5
-6 17 11 29 10 65 -2 25 -9 44 -21 42 -27 -1 -6 3 -8 9 -5 24 16 153 -71 157
-107 1 -7 5 -31 8 -54 11 -79 -40 -145 -133 -169 -57 -16 -218 -11 -239 6 -8
6 -14 9 -14 5 0 -8 -49 18 -76 41 -46 40 -65 86 -68 160 -1 36 -4 43 -21 44
-85 4 -299 3 -306 -1 -10 -7 -13 -55 -6 -85 3 -11 8 -40 12 -65 4 -25 16 -59
26 -76 10 -17 16 -34 12 -37 -3 -4 -1 -7 6 -7 8 0 11 -6 7 -16 -3 -8 -2 -12 3
-9 16 9 25 -16 10 -27 -11 -8 -10 -9 3 -5 11 4 29 -8 52 -34 20 -21 40 -39 46
-39 5 0 10 -7 10 -16 0 -8 4 -13 9 -10 5 3 20 -3 34 -14 14 -11 30 -20 37 -20
7 0 9 -9 5 -22 -5 -20 -5 -21 5 -5 11 17 13 17 36 2 13 -8 24 -12 24 -8 0 5 4
2 9 -6 5 -8 20 -15 33 -17 12 -1 39 -5 58 -8 59 -11 124 -19 148 -20 12 0 22
-4 22 -9 0 -5 7 -4 15 3 12 10 15 10 15 -1 0 -11 2 -11 10 1 8 12 11 13 19 1
7 -11 9 -11 13 0 5 12 9 12 28 1 16 -10 20 -10 14 -1 -5 9 -2 10 9 6 10 -3 17
-3 17 2 0 4 6 8 13 9 6 0 29 3 49 5 27 4 36 2 32 -6 -3 -7 2 -3 10 7 9 11 16
17 16 14 0 -4 12 -1 27 7 15 8 30 12 35 9 4 -3 8 -2 8 3 0 4 15 14 33 22 17 8
51 29 74 48 24 19 48 31 54 27 8 -4 9 -3 5 4 -8 14 38 85 48 74 4 -4 7 -2 6 3
-5 22 1 36 12 29 6 -4 8 -3 4 4 -3 6 2 41 12 79 39 144 -3 308 -106 410 -91
90 -178 134 -427 217 -181 61 -243 101 -267 171 -9 27 -13 52 -10 55 4 3 9 14
10 25 5 28 42 86 52 80 4 -3 11 2 14 11 4 9 9 14 13 11 3 -3 18 0 33 8 21 11
30 11 40 2 9 -8 11 -8 7 -1 -5 8 6 13 28 16 19 2 35 0 35 -5 0 -4 6 -5 12 -1
17 11 81 5 89 -8 3 -5 9 -9 13 -9 18 3 27 0 23 -6 -3 -5 5 -9 18 -9 26 -2 65
-33 65 -51 0 -7 4 -13 8 -13 12 0 32 -70 32 -112 0 -30 4 -36 25 -40 14 -3 25
0 26 6 0 6 4 2 9 -9 5 -11 9 -15 9 -9 1 13 39 12 60 0 9 -6 12 -5 8 1 -4 6 0
13 8 17 14 5 20 -5 16 -27 -1 -5 3 -6 9 -2 6 3 7 11 4 17 -5 7 0 9 14 6 12 -4
24 -3 27 2 5 8 48 5 65 -5 6 -4 17 -1 25 5 11 10 15 10 15 1 0 -7 4 -10 8 -7
7 4 6 71 -1 106 -2 8 -7 33 -12 55 -4 22 -19 62 -34 90 -73 139 -198 231 -364
268 -72 16 -252 20 -322 6z"/>
<path d="M1440 1220 c-9 -6 -10 -10 -3 -10 6 0 15 5 18 10 8 12 4 12 -15 0z"/>
</g>
</svg>
